<?xml version="1.0" standalone="no"?>
<!DOCTYPE svg PUBLIC "-//W3C//DTD SVG 20010904//EN"
 "http://www.w3.org/TR/2001/REC-SVG-20010904/DTD/svg10.dtd">
<svg version="1.0" xmlns="http://www.w3.org/2000/svg"
 width="500.000000pt" height="500.000000pt" viewBox="0 0 500.000000 500.000000"
 preserveAspectRatio="xMidYMid meet">
<metadata>
Created by potrace 1.11, written by Peter Selinger 2001-2013
</metadata>
<g transform="translate(0.000000,500.000000) scale(0.100000,-0.100000)"
fill="#000000" stroke="none">
<path d="M1993 3802 c-19 -2 -40 -13 -50 -26 -17 -21 -18 -60 -18 -595 l0
-573 23 -18 c20 -17 47 -18 298 -18 152 -1 277 -2 279 -4 1 -2 -24 -50 -57
-108 -33 -58 -76 -134 -95 -170 -19 -36 -44 -81 -55 -100 -11 -19 -39 -69 -62
-111 -217 -398 -282 -509 -298 -509 -10 0 -18 -8 -19 -17 -2 -37 0 -115 3
-119 2 -1 280 -5 618 -7 415 -3 621 -1 637 6 40 18 39 -10 27 622 -3 176 -7
387 -8 468 -3 208 25 191 -321 190 -276 -2 -296 1 -266 32 5 6 30 51 57 100
26 50 58 107 71 127 13 21 23 40 23 42 0 2 17 35 39 73 76 135 247 445 291
525 17 33 31 48 45 48 19 0 21 6 20 64 0 36 -4 68 -8 72 -7 7 -1107 12 -1174
6z"/>
</g>
</svg>
